<?xml version="1.0" encoding="UTF-8"?><svg id="Layer_1" xmlns="http://www.w3.org/2000/svg" viewBox="0 0 179.1186072 73.7583"><defs><style>.cls-1{fill:#fff;}.cls-2{fill:#f58025;}.cls-3{fill:#c41230;}.cls-4{fill:#00a8cb;}.cls-5{fill:none;}.cls-6{fill:#781d7e;}.cls-7{fill:#eeb111;}</style></defs><g><g><path class="cls-1" d="m0,47.1621v-3.1455h2.66409993v-12.3301H0v-3.1465h10.22849974v3.1465h-2.71779993v12.3301h5.50199986v-5.7568h3.62790753v8.9023H0Z"/><path class="cls-1" d="m18.92189952,47.1621v-3.1455h2.82419993v-12.3301h-2.82419993v-3.1465h10.52239973v3.1465h-2.85149993v12.3301h2.85149993v3.1455h-10.52239973Z"/><path class="cls-1" d="m32.30079918,47.1621v-3.1455h2.28899994v-12.3301h-2.28899994v-3.1465h8.50099979c1.88280823,0,3.28409992.1104,4.20409989.3282.91889998.2187,1.71279996.75,2.38279994,1.5937.66890839.8428,1.00390839,1.8321,1.00390839,2.9649,0,1.8115-.875,3.0927-2.62410835,3.8418,2.23149994.83,3.34669992,2.3164,3.34669992,4.458,0,1.2324-.34569999,2.2871-1.03709997,3.166-.69239998.8799-1.58489996,1.4775-2.67769993,1.7939-1.09379166.3174-2.62599993.4756-4.59859988.4756h-8.50099979Zm7.13569982-11.2724h1.36529997c.94619998,0,1.64249996-.1602,2.08880823-.4815.44529171-.3213.669-.8877.669-1.7002,0-.7412-.21680829-1.2627-.64940828-1.5664-.43269999-.3037-1.18949997-.4551-2.26859172-.4551h-1.20510819v4.2032Zm0,8.1269h1.36529997c1.24019997,0,2.10639995-.1787,2.59759993-.5361.49020829-.3565.73539998-.9863.73539998-1.8877,0-.9453-.26569999-1.6084-.79589998-1.9873-.53129171-.3799-1.37699997-.5694-2.53709994-.5694h-1.36529997v4.9805Z"/><path class="cls-1" d="m70.8496072,44.0166v3.1455h-5.67280884l-4.20509989-8.1523h-2.13089995v5.0068h2.32909994v3.1455h-9.73239975v-3.1455h2.55759994v-12.3301h-2.55759994v-3.1465h11.23239972c2.11529995,0,3.63870878.5342,4.57129988,1.6006.93259998,1.0664,1.3994089,2.2735,1.3994089,3.6211,0,2.1153-1.0762089,3.6592-3.22650885,4.6319l3.02529992,5.623h2.41020893Zm-12.00880868-7.9795h1.66019996c2.05269995,0,3.07909992-.7314,3.07909992-2.1953,0-.7226-.23439999-1.2627-.70319998-1.6201-.46869999-.3565-1.11319997-.5352-1.93449995-.5352h-2.10159995v4.3506Z"/><path class="cls-1" d="m91.33689769,44.0166v3.1455h-9.15719977v-3.1455h2.38279994l-.88379998-3.2002h-4.83199988l-.99119997,3.2002h2.49019994v3.1455h-8.24709077v-3.1455h2.30279092l3.62789991-12.3301h-2.47659994v-3.1465h12.15629969v3.1465h-2.50389994l3.9091999,12.3301h2.22259994Zm-8.42089979-5.9307l-1.55269996-5.6093-1.67389996,5.6093h3.22659992Z"/><path class="cls-1" d="m112.72219715,44.0166v3.1455h-5.67339986l-4.20509989-8.1523h-2.13079995v5.0068h2.32909994v3.1455h-9.7323902v-3.1455h2.55759038v-12.3301h-2.55759038v-3.1465h11.23239016c2.11519995,0,3.63869991.5342,4.57129988,1.6006s1.39939996,2.2735,1.39939996,3.6211c0,2.1153-1.07619997,3.6592-3.22659992,4.6319l3.02539992,5.623h2.41069994Zm-12.0092997-7.9795h1.66009996c2.05279995,0,3.07909992-.7314,3.07909992-2.1953,0-.7226-.23429999-1.2627-.70309998-1.6201-.46869999-.3565-1.11329997-.5352-1.93459995-.5352h-2.10149995v4.3506Z"/><path class="cls-1" d="m117.58639703,47.1621v-3.1455h2.61129993v-5.0342l-5.04679987-7.2959h-2.27739994v-3.1465h9.31839976v3.1465h-1.83199995l2.73339993,4.5401,2.77531031-4.5401h-1.92381033v-3.1465h8.20709979v3.1465h-2.28809994l-4.82029988,7.2959v5.0342h2.59659993v3.1455h-10.05369975Z"/><path class="cls-1" d="m7.67679981,59.8862c2.31829994,0,4.1415999.6709,5.47069986,2.0088,1.32910753,1.3399,1.99410753,2.9707,1.99410753,4.8955,0,1.9327-.666,3.5655-1.999,4.9004-1.3321075,1.3369-3.15430745,2.0039-5.46580739,2.0039-2.40139994,0-4.24519261-.6875-5.53329986-2.0615-1.28709997-1.373-1.93059995-2.9883-1.93059995-4.8428,0-1.917.66109998-3.5478,1.98439995-4.8896,1.32219997-1.3438,3.14939992-2.0147,5.47949986-2.0147Zm0,2.4522c-1.02929997,0-1.90339995.3877-2.62109993,1.1601-.71779998.7715-1.07719997,1.9043-1.07719997,3.3995,0,1.3193.35449999,2.375,1.06249997,3.167.70799998.7919,1.58689996,1.1875,2.63579993,1.1875,1.03019997,0,1.90619995-.3877,2.62689993-1.1641.72069998-.7754,1.08109997-1.8945,1.08109997-3.3555,0-1.3066-.34379999-2.3652-1.03319252-3.1767-.68850744-.8116-1.58010742-1.2178-2.67480739-1.2178Z"/><path class="cls-1" d="m16.68749958,73.5317v-2.2705h1.92089995v-8.8925h-1.92089995v-2.2705h12.0214997v4.1425h-2.56839208v-1.872h-4.03610776v3.1084h2.90619993v2.2695h-2.90619993v3.5146h2.06639995v2.2705h-7.48339981Z"/><path class="cls-1" d="m43.09669891,73.6509l-5.54299986-15.5952h-2.22169994v-3.1465h9.50489976v3.1465h-2.40919994l3.13090827,9.3315,3.14059157-9.3315h-2.37599994v-3.1465h8.24609979v3.1465h-2.26269142l-5.34080838,15.5952h-3.8690999Z"/><path class="cls-1" d="m56.48829857,73.5317v-3.1455h2.82419993v-12.3305h-2.82419993v-3.1465h10.52239973v3.1465h-2.85149993v12.3305h2.85149993v3.1455h-10.52239973Z"/><path class="cls-1" d="m88.99799775,70.3862v3.1455h-5.67279986l-4.20509989-8.1533h-2.13079995v5.0078h2.32909994v3.1455h-9.73249975v-3.1455h2.55759994v-12.3305h-2.55759994v-3.1465h11.23249972c2.11520924,0,3.63859991.5342,4.57120924,1.6006.93269062,1.0664,1.39949061,2.2729,1.39949061,3.6216,0,2.1152-1.07619997,3.6582-3.22659992,4.6308l3.02539992,5.624h2.41009994Zm-12.0086997-7.9795h1.66009996c2.05269995,0,3.07909992-.7324,3.07909992-2.1962,0-.7217-.23439999-1.2618-.70309998-1.6202-.46879076-.3559-1.11329997-.5346-1.93459995-.5346h-2.10149995v4.351Z"/><path class="cls-1" d="m101.26849744,67.2798v-3.1465h8.72859978c0,2.2578-.40819999,4.0479-1.22559997,5.3692-.81639998,1.3203-2.00299995,2.3593-3.56059991,3.1191-1.55759996.7578-3.30469992,1.1367-5.24119987,1.1367-3.36519991,0-5.94629985-.9014-7.74409028-2.7031-1.79880948-1.8027-2.69830946-4.0918-2.69830946-6.8692,0-1.9277.44630946-3.6289,1.33889997-5.1054.89259998-1.4781,2.09279995-2.5913,3.60159991-3.3413,1.50780958-.7491,3.14549992-1.1241,4.91309988-1.1241,2.49899994,0,4.44429989.6065,5.83689985,1.8204v-1.5264h3.15909992v6.6138h-3.15909992c-.33009999-1.1163-.98639998-1.9952-1.96779995-2.6368-.9823902-.643-2.03519995-.9643-3.16019992-.9643-1.48139996,0-2.74409993.5239-3.7879999,1.5727-1.04399997,1.0498-1.56649996,2.502-1.56649996,4.3575,0,2.125.53130959,3.7421,1.59279996,4.8535,1.06250963,1.1103,2.35650963,1.666,3.8827999,1.666,1.12409997,0,2.05670973-.2725,2.79789993-.8154.74019998-.545,1.25389997-1.3037,1.53899996-2.2764h-3.27929992Z"/><path class="cls-1" d="m111.32229719,73.5317v-3.1455h2.82469993v-12.3305h-2.82469993v-3.1465h10.52189973v3.1465h-2.85058973v12.3305h2.85058973v3.1455h-10.52189973Z"/><path class="cls-1" d="m124.52689685,73.5317v-3.1455h2.49119994v-12.3305h-2.49119994v-3.1465h7.8231998l6.84859983,11.6128v-8.4663h-2.42179994v-3.1465h8.35249979v3.1465h-2.61039993v15.6089h-4.1493892l-8.03321049-13.8008v10.5224h2.34379994v3.1455h-8.15329979Z"/><path class="cls-1" d="m147.47799627,73.5317v-3.1455h2.82419993v-12.3305h-2.82419993v-3.1465h10.52349973v3.1465h-2.85259993v12.3305h2.85259993v3.1455h-10.52349973Z"/><path class="cls-1" d="m179.1186072,70.3862v3.1455h-9.15821149v-3.1455h2.38289994l-.88289998-3.2002h-4.83299988l-.99119997,3.2002h2.49029994v3.1455h-8.24709979v-3.1455h2.30269994l3.62799991-12.3305h-2.47559994v-3.1465h12.15519969v3.1465h-2.50389994l3.9091999,12.3305h2.22361167Zm-8.42091151-5.9306l-1.55369996-5.6104-1.67279996,5.6104h3.22649992Z"/></g><g><path class="cls-2" d="m157.05609603,36.1582c-3.31929992-1.8447-6.67669983-3.0605-9.88179975-3.5264v-16.2099c-1.61029996-.085-3.20509992-.0557-4.77239988.0918v22.1269c7.03409982.0557,15.16689962,4.503,20.27919949,9.0088v-7.7168c-1.69039996-1.3447-3.42479991-2.5195-5.17089987-3.5244-.1269-.0703-.24599999-.1318-.36809999-.2012"/><path class="cls-3" d="m147.17429628,9.8272v22.8046c3.20509992.4659,6.56249983,1.6817,9.88179975,3.5264V13.3545c-3.31929992-1.8457-6.67669983-3.0615-9.88179975-3.5273Z"/><path class="cls-7" d="m172.56399564,8.8428V0c-3.34959992,1.0029-6.87209983,2.8164-10.33699974,5.292-1.74999996,1.248-3.48338871,2.6631-5.17089987,4.2334v3.7705c1.69239996-.8994,3.42489991-1.665,5.17089987-2.2978,3.42489991-1.2461,6.91019983-1.9707,10.33699974-2.1553Z"/><path class="cls-4" d="m172.56399564,8.8428c-3.42679991.1846-6.91209983.9092-10.33699974,2.1553-1.74599996.6328-3.47849991,1.3984-5.17089987,2.2978v.0586c.1514.083.30179999.1611.45409999.252,1.74609996,1.0019,3.48049991,2.1796,5.17089987,3.5214v16.6758c4.89751131-1.708,9.90829975-2.3857,14.65429963-1.9101V8.9424c-1.56729996-.1582-3.16499992-.1846-4.77139988-.0996Z"/><path class="cls-6" d="m157.51019602,13.6065c-.1523-.0909-.30269999-.169-.45409999-.252v22.8037c.0264.0176.32719999.1797.45409999.25,1.74609996,1.0049,3.48049991,2.1797,5.17089987,3.5244v-22.8047c-1.69039996-1.3418-3.42479991-2.5195-5.17089987-3.5214Z"/></g></g><rect class="cls-5" x="-94.8798976" y="-19.6709" width="382.9995048" height="134.9995"/></svg>